<mxfile host="65bd71144e">
    <diagram id="HIP3nbAZw_EuaXWnEj3U" name="Page-1">
        <mxGraphModel dx="1007" dy="479" grid="1" gridSize="10" guides="1" tooltips="1" connect="1" arrows="1" fold="1" page="1" pageScale="1" pageWidth="850" pageHeight="1100" math="0" shadow="0">
            <root>
                <mxCell id="0"/>
                <mxCell id="1" parent="0"/>
                <mxCell id="7" value="http://ics2o.mths.ca" style="swimlane;whiteSpace=wrap;html=1;" parent="1" vertex="1">
                    <mxGeometry x="40" y="40" width="760" height="480" as="geometry"/>
                </mxCell>
                <mxCell id="8" value="&lt;font style=&quot;font-size: 18px;&quot;&gt;Score: 0&lt;/font&gt;" style="text;html=1;align=center;verticalAlign=middle;resizable=0;points=[];autosize=1;strokeColor=none;fillColor=none;" vertex="1" parent="7">
                    <mxGeometry x="-10" y="33" width="90" height="40" as="geometry"/>
                </mxCell>
                <mxCell id="9" value="&lt;font style=&quot;font-size: 18px;&quot;&gt;Lives: 3&lt;/font&gt;" style="text;html=1;align=center;verticalAlign=middle;resizable=0;points=[];autosize=1;strokeColor=none;fillColor=none;" vertex="1" parent="7">
                    <mxGeometry x="-10" y="60" width="90" height="40" as="geometry"/>
                </mxCell>
                <mxCell id="10" value="&lt;font style=&quot;font-size: 18px;&quot;&gt;wave: 1&lt;/font&gt;" style="text;html=1;align=center;verticalAlign=middle;resizable=0;points=[];autosize=1;strokeColor=none;fillColor=none;" vertex="1" parent="7">
                    <mxGeometry x="670" y="20" width="90" height="40" as="geometry"/>
                </mxCell>
                <mxCell id="11" value="" style="shape=image;verticalLabelPosition=bottom;labelBackgroundColor=default;verticalAlign=top;aspect=fixed;imageAspect=0;image=data:image/png,iVBORw0KGgoAAAANSUhEUgAAAGQAAABkCAYAAABw4pVUAAAAAXNSR0IArs4c6QAABoZJREFUeF7tXbl1G0EMXTbhxE3ITTARM/dgNeHQFSiTenBGJWzCasKJm6CfhovVDggMgLk4JKFEb7lzYPDxccxem8n/htLAZihpXJgpBciR0c/QIL5MD0Hup+k9Kae2HejA2j7XthwQAbgRAImYcTyeDjebM+yqMkVrgVw7/LvUDhRtZZJWzpoMcUBW2tQCnQsA7kdZeQAEmHHW4ZMpKoZIFqVdsNROOo/XYZXL2j8BUDI2OyBMDCkFrBsgMNEqppBMgQVJvlpr2bntOMvGv+NY0gAQ0vNgPZoZ4oCcNCABRjCkDBAYkIslVmC4bEZr+b3TT26+XCCwPjkPwzLEAaGZcAlAFixS2VYthkiWv1JAy8xSHDsDiKQeubpOrNRbuywHZLGFgEWxy3rdfAsjclmKlM1wwe9leohO/Tj+Ea041QBbJIwvVeoFkybrOc7DOCDKvawMYNoAggXBLoxjiGEB5FYNjAvjlDIEy4PHf5reF6M1yL40xXWXVl51HcIJ5YDQmmkJCIsFlXXVYggH9BUwJDBcG/OkXXPVBuGsFNInOiBTH0CIvJvcpeSyFe31CMnXAuBSO6vf52KUZMEfG+HUXBJDFOOGYVmGOCBxfbACoS8g2r0lLogR2QuAbqK21eKt7aUsDix65QGiKfb7fXT8d/czOl5lbabs7YwhDshJf1cHCGeRxHWQqKnka62WntteYgiMu0pawk+YGbvdLvyO15W7A5DNEAfkpIHmgICirbubmBkwDvhSqDNaZU1WppQyBIBYzWspIVhxLVlWcs0OSPKmQ7W9VEF19qEhi/q6/xUmh6wDM0QtWeOGFRlSTYchmai1bmCIA1Km0WqA4AoWso7aFXbZcj97WxkC69BW3LlyOiCz5jjDwUnINQECRhFV5LfGEFikdF/aCAxxQHJRqJ07IzmcIQXA1IwhzpACIBZXWGEMPIQzpECpzhBjlnWzQV1bBxQYW7Irnh83huyQ23u7uSzLAaHtpabLim6C0O7qcpbaun7RziutozZTHBBkqNgQHBBBQaUxRRs7YB4HxAEptbmlf1YMwZbISVMaU6zMuFuGOCCxCV48qGNGcOmw5Ms5ZuX2u3uGcEyRCjTJ4Tog87tRchVx6YKRYywXw26uDtG6LIkJrc5LhuWAtNI8M64DMj9ECvopTXdL8btmQGDtRddDRo8hd3eTgwNSymmmP9w4l+tyJFfRSOyzYRO3AdWs4ZZ5mwz6MboDkmcyzQBZiUM+hy6JOxpDSp9jl9YL5x0QQVP4gZ2a90NTU/cAJMq+uGfzrLGmFYNgXOKm8S666jLJjEhwXQ5ImpLdAdlut5FE3w//wjG2SO3Nz9a9J649nv/39ktoCvLlPjOojR09Y0jkshyQwRgC4gAwVoZYLY5r//b2Fk7Bk17AkOfn5/D74XAI/zu8VysSsbvLckCcIZEGuCyKY0jrNBfDc3cMuWdAogod0l14vhsHd7CU2jFFAgBiCGRVIAfEEIkh1uf5pRjYkiEOiKR94nwLQEggYG7iDQjhlJR1gY+HcR4fH5PL5bIoBSO4cSNdaV/SY8XEAZk1tnJRYwKS4RutzMDGEPprC0fMGNAiriu4Y4gZGAjubT8rlILc3RnigJwg4F4y0w0Q7Xc/VhaTvN6RcQ06YgqXdVkZosiishieYbjJsMK+Lwt6KTbVHBDFZ/q0wb3k9Uzab1WBLNoEIgKYiyl4N1bareViBlFnRJcJcDZX+8Y4daWuoKIDojV7QzvRZRGuq4qLUgAOU5MxRcsQa+WN32qk+Fqd1QOUxRAHhHxNb7MPbWr9+gcuVZlhTRpwJd+QIREzl4P5rv4zn1/5C6gOCO9AVLcvZaT1NpfF1RcGSyFBTrwkUzIKU9aFV0tsiSTlI9L8XGCyYktKGaTzVAQ5ByS2CsngotZU41wgTBZhyLJIn85dTyGyqqRchp0JFVMSMUYFjAMyPUSKTuxMXBYQ6XN5i9kZvx4N/TIYgo2Pzkc/W6ksMkMeEzDWyp5liAPCJkOXAeTMHFEebk33uCwLz6PYzEymjdxJ7Rd/rPWRIskxxdbsGOKAnArlHoAkfTUIYPWNWWZdoVOrC0mwc4EBsRrqWVamWDPpMx0QmiE9ACHrgBWQpmxGYQBVmzRkSBO9WJTJpZmWMaoqWzPYLQOiWf+wbSrUPdLawGCLDLSosyThSOcdkJHQuCJZ7oYh14KJAzIYUg6IAzKYBgYTxxkyGCD/AZn9uL9BMuM3AAAAAElFTkSuQmCC;" vertex="1" parent="7">
                    <mxGeometry x="355" y="90" width="50" height="50" as="geometry"/>
                </mxCell>
                <mxCell id="12" value="" style="shape=image;verticalLabelPosition=bottom;labelBackgroundColor=default;verticalAlign=top;aspect=fixed;imageAspect=0;image=data:image/png,iVBORw0KGgoAAAANSUhEUgAAAGQAAABkCAYAAABw4pVUAAAAAXNSR0IArs4c6QAABlBJREFUeF7tXDGPHTUQ3pMIiIIiiqBAgiIFFAlKBfwAaECJaBEdTa4BKTU/IDVSaC4NHaJFiaCBHwBUEVBAkQIkChCioEBApIvwe7Nnzxt7vvF6d/1e5rq7Hc+M55vPM/Z672jwn64icNSVN+7M4IB0lgQOiAPSWQQ6c8cZ4oB0FoHO3HGGOCCdRaAzd5whDggcgVMmOTV5WuuDJ2IRnDpJiy2rbOsAttZnnQ8k3yMgPHA0kam+zqUXCjQqNHWSqB2L3FyBm0uvZW6qbE+AhICd/Phb4vTxi880ZciM+tVgIwIOSDvAkXirMj0AkjDj7kdPJk7fufVUbhKa7+ISde39vxJ9V9/7O/zekIlq0EsC2qQmKQcHOyBRoLoBhGcu+UgMobXfkMkJ0DROszMM674jckC2yEdL46oxWdX4NhYhk7XMvXH7XhD/8PoVvhLyOSS1g4/T7DhDhsEB2ccaQplOvkdMERmSk3eG6K2WiSEOiB7QqRJTARHtO0PqYXFAMjWEupOlOy8IEI43P5Piz6P9SvKowxqSxD0OvgOygW6VhCS7EiCUUUs5JjKEn2HtnNLeP1dcJE8u/pc854zhTFlhYyi+MHNA1tupY4Ccnm7kjo5GrOZmingqa2WE1lNojFlwbxbmm4vzDkMckNlrCAwIJUlxgJaJhucJM3Jd07FSKwz2gihnCo0XurLWKwMUV8koNNAaCEHeARG6uiwg3/3zZRC//PhrrWpKEYDWTLAmDFBjahmTJPj3/34VXHvpidfFbtYB2YZlbwDhmZZDtpCRG2Z88ac1afuSf+O8mNHavGmlQeOoMgRVpDnmgKQRMi9Zn/76XNBw6cLHiaZuGHKWsXIutGZkI4b88Me7wd+3n/3FVkMcEIbzioCQJ2HtbwDMPDVkGyDayI7pRicM6zEkzJfXDo0ZSIFyQGKS4AxZBhDyraKmPCoMKQJB8cvVDjNDHBC17V0HkFx7qyH//wFn0/3IUjVEX6qSpV3bPGlxKh0HNDXkgGygWgwQYI08NIaYEhaITxBpxhDAoAMykSHJfuTiZ1fD7zdf3tyx1X4EamKAaDtwZji7D9EcpOfafmW3hpiY8cG3m7vI99+6izRS0Nux4IADMsZqvwApFC0TQ3jmowmPyo13BuwMSVYOOsnI2V2dIQ5ICs3sgJA5Xku0dg5ue7drtnYzkfy4/sLTSQRu//Q7RJLxHXo9Q4pMISBIaLYa4oDs4C3WlMUBAZCnd+jUWptqCJTm0f2msYU5u0+GqbAzhM8rYQo1P9z47AxxQHY61KQbnRMQMQMKiCe3S4TNJ8YULb/nPsvKn2FB8yOmoMyANil8DxbvRxyQMTriJ3WLARKBJDpCb8oK794PgiHwPM8CBt3rgoS2OiGqwo5qxbTzJQue5wKAFJlB9h8VhsDzBT8EqmGIAyJcYlATcAZA+CJS+zK/aQ3J/v+rRktirktscBtHXJQtDHFANhFodRunGSAJM+i+EWmPzrS01jrooW/97rz5QCvj6XPtvYmRIdc+fyzoB741TJobftpLt3IqbngG+zUMcUCi1FgTEBEIAyPEJS/73biVMTZ+DcQIPgxgiDgP+iOvLVamWBjigMigi0tY7dKFAMI3hNwtTUduQ5n8fSmmAMzgtU/bEBcZI2BYjJcWzLGrKKwImg4HJA1eNSDWzCCzyTj0iCHHEFJq7sJYBuWYMeo/+++n6Bmd1kVqzBGBUe9lRVo1Jjgg5cYCSnA0yCVTIiP4AKDbCHquvHIShj7/6juiTStTcsz4+etPgv573xxrmS6eSNCgaF6aHqgPdEAOFZDcBknIpFwSQAyB0gwQmsqQwgnFpCSfNHg7b/HWRe2HPdqSBcQaEjlkQMRizhkD3NtK9BAw9MdcTYGiPwwDAUDyQO1I/CnMp0ntaKokZgopdkDQVEnlWixZOcu5HT5qMxlvZUyBEdZknDoPEzJocExKJcZEClCbDkhN1A1jKMAoIFx1ESAuHNUIKyNydmv9NoSo7n2IyUAk7IAAkVsEdcCPGpGpp9A1Nmcf44DMHmKbgX0GJNknVDQNtkgtJO2ALBRo1MwhAILOdS/kHJDOYHJAHJDOItCZO84QB6SzCHTmjjPEAeksAp254wxxQDqLQGfuOEMckM4i0Jk7zhAHpLMIdObOQw2/LqEdsAEcAAAAAElFTkSuQmCC;" vertex="1" parent="7">
                    <mxGeometry x="355" y="410" width="60" height="60" as="geometry"/>
                </mxCell>
                <mxCell id="13" value="" style="shape=image;verticalLabelPosition=bottom;labelBackgroundColor=default;verticalAlign=top;aspect=fixed;imageAspect=0;image=data:image/png,iVBORw0KGgoAAAANSUhEUgAAABQAAAAyCAYAAABcfPsmAAAAAXNSR0IArs4c6QAAAf5JREFUWEe9lE1KBDEUhDuHUBBcKy7EI7jwCp5hXAniQURw5ZzBK7jwCOJCdC0IeoiWaqih8vq9pBMaZzMz+flSr14laVj5k3p5l9d349PD7Wx/CNQN9reKsNAmhR44BGIxTvbKwDjnvTV60KSQA6XvUpk6lwF1QhV76nSM+1Bd8lSxLAv17LBWzZriKSPIRsVrUgaM1GpJni2Zh5FXXuC1ZD08BN5sX6fofL09D4enF9O6+83Z5HN0gAVnXSYwuo44SMv3mjYBVZkGFxtUKdYplGu5H9XsmqLqMMHAA8j/ejjt4BjX7ICUD4B6aDfS4yhKWWyshwrGb0KwDoq0VHo7C7ZXOgH6SKi3s7vsdVXB1gK1we6tvodelLRJTcBa+V5lVYU2KqVyMVcFrlayRsJCT84PhqvjfVeMO6gx8W6Hna/GpgTE5tUUAvT+8p3d7UWxUf8eP35GQPgpZbDYZUBZmndnozczjE1rXMLHwb5v/F9qRFOXrdIuD+17p+rQpCjUYVOwCZOMiEK6gIAxLihxFSChNJxldiv0gLSi2UMbWoIwXoIteg9bYFXgOI7j9vN32BztDfiuqVsETCklglcBqkIoxQHRw9CkcHf5e4FoBhTxQ6XdCuEbYAqqhbpYsgKxcIl//+shTqPK7AHtbQohhDKP3U2xwMmfijqs+QNrTRCJ/B+RgQAAAABJRU5ErkJggg==;" vertex="1" parent="7">
                    <mxGeometry x="379" y="340" width="12" height="30" as="geometry"/>
                </mxCell>
                <mxCell id="14" value="" style="shape=image;verticalLabelPosition=bottom;labelBackgroundColor=default;verticalAlign=top;aspect=fixed;imageAspect=0;image=data:image/png,iVBORw0KGgoAAAANSUhEUgAAABQAAAAyCAYAAABcfPsmAAAAAXNSR0IArs4c6QAAAf5JREFUWEe9lE1KBDEUhDuHUBBcKy7EI7jwCp5hXAniQURw5ZzBK7jwCOJCdC0IeoiWaqih8vq9pBMaZzMz+flSr14laVj5k3p5l9d349PD7Wx/CNQN9reKsNAmhR44BGIxTvbKwDjnvTV60KSQA6XvUpk6lwF1QhV76nSM+1Bd8lSxLAv17LBWzZriKSPIRsVrUgaM1GpJni2Zh5FXXuC1ZD08BN5sX6fofL09D4enF9O6+83Z5HN0gAVnXSYwuo44SMv3mjYBVZkGFxtUKdYplGu5H9XsmqLqMMHAA8j/ejjt4BjX7ICUD4B6aDfS4yhKWWyshwrGb0KwDoq0VHo7C7ZXOgH6SKi3s7vsdVXB1gK1we6tvodelLRJTcBa+V5lVYU2KqVyMVcFrlayRsJCT84PhqvjfVeMO6gx8W6Hna/GpgTE5tUUAvT+8p3d7UWxUf8eP35GQPgpZbDYZUBZmndnozczjE1rXMLHwb5v/F9qRFOXrdIuD+17p+rQpCjUYVOwCZOMiEK6gIAxLihxFSChNJxldiv0gLSi2UMbWoIwXoIteg9bYFXgOI7j9vN32BztDfiuqVsETCklglcBqkIoxQHRw9CkcHf5e4FoBhTxQ6XdCuEbYAqqhbpYsgKxcIl//+shTqPK7AHtbQohhDKP3U2xwMmfijqs+QNrTRCJ/B+RgQAAAABJRU5ErkJggg==;" vertex="1" parent="7">
                    <mxGeometry x="379" y="290" width="12" height="30" as="geometry"/>
                </mxCell>
                <mxCell id="15" value="" style="shape=image;verticalLabelPosition=bottom;labelBackgroundColor=default;verticalAlign=top;aspect=fixed;imageAspect=0;image=data:image/png,iVBORw0KGgoAAAANSUhEUgAAABQAAAAyCAYAAABcfPsmAAAAAXNSR0IArs4c6QAAAf5JREFUWEe9lE1KBDEUhDuHUBBcKy7EI7jwCp5hXAniQURw5ZzBK7jwCOJCdC0IeoiWaqih8vq9pBMaZzMz+flSr14laVj5k3p5l9d349PD7Wx/CNQN9reKsNAmhR44BGIxTvbKwDjnvTV60KSQA6XvUpk6lwF1QhV76nSM+1Bd8lSxLAv17LBWzZriKSPIRsVrUgaM1GpJni2Zh5FXXuC1ZD08BN5sX6fofL09D4enF9O6+83Z5HN0gAVnXSYwuo44SMv3mjYBVZkGFxtUKdYplGu5H9XsmqLqMMHAA8j/ejjt4BjX7ICUD4B6aDfS4yhKWWyshwrGb0KwDoq0VHo7C7ZXOgH6SKi3s7vsdVXB1gK1we6tvodelLRJTcBa+V5lVYU2KqVyMVcFrlayRsJCT84PhqvjfVeMO6gx8W6Hna/GpgTE5tUUAvT+8p3d7UWxUf8eP35GQPgpZbDYZUBZmndnozczjE1rXMLHwb5v/F9qRFOXrdIuD+17p+rQpCjUYVOwCZOMiEK6gIAxLihxFSChNJxldiv0gLSi2UMbWoIwXoIteg9bYFXgOI7j9vN32BztDfiuqVsETCklglcBqkIoxQHRw9CkcHf5e4FoBhTxQ6XdCuEbYAqqhbpYsgKxcIl//+shTqPK7AHtbQohhDKP3U2xwMmfijqs+QNrTRCJ/B+RgQAAAABJRU5ErkJggg==;" vertex="1" parent="7">
                    <mxGeometry x="379" y="230" width="12" height="30" as="geometry"/>
                </mxCell>
            </root>
        </mxGraphModel>
    </diagram>
</mxfile>